<svg width="18" height="20" viewBox="0 0 18 20" fill="none" xmlns="http://www.w3.org/2000/svg">
<path d="M11.2028 17.6689C10.8816 18.375 10.6692 19.1413 10.5879 19.9449L17.3851 18.5123C17.7063 17.8064 17.9185 17.0399 18 16.2363L11.2028 17.6689Z" fill="#0F172A"/>
<path d="M17.3848 14.2208C17.706 13.5148 17.9184 12.7484 17.9997 11.9448L12.7049 13.0613V10.915L17.3847 9.929C17.7059 9.22304 17.9182 8.45659 17.9995 7.653L12.7047 8.76854V1.04981C11.8934 1.50145 11.1728 2.10264 10.5871 2.81177V9.21494L8.46954 9.66119V0C7.65821 0.451484 6.93767 1.05283 6.35195 1.76196V10.1073L1.61385 11.1055C1.29265 11.8115 1.08017 12.5779 0.998667 13.3815L6.35195 12.2536V14.9564L0.61486 16.1652C0.29366 16.8711 0.0813409 17.6376 0 18.4412L6.00513 17.1759C6.49398 17.0751 6.91413 16.7886 7.1873 16.3942L8.2886 14.7755C8.40293 14.608 8.46954 14.4057 8.46954 14.1883V11.8073L10.5871 11.3611V15.6537L17.3848 14.2208Z" fill="#0F172A"/>
</svg>
